<svg xmlns="http://www.w3.org/2000/svg" width="1320" height="430" viewBox="0 0 1320 430" role="img" aria-labelledby="title desc">
<title id="title">Controlled routing interventions across three checkpoints</title>
<desc id="desc">Paired New17 AP effects for gate substitutions, fixed experts, flipped native choices, and native expert use.</desc>
<style>
          .bg{fill:#fff}.title{font:700 22px -apple-system,BlinkMacSystemFont,'Segoe UI',sans-serif;fill:#111827}
          .subtitle,.note{font:12px -apple-system,BlinkMacSystemFont,'Segoe UI',sans-serif;fill:#4b5563}
          .panel-title{font:700 15px -apple-system,BlinkMacSystemFont,'Segoe UI',sans-serif;fill:#111827}
          .row-label,.tick{font:11px -apple-system,BlinkMacSystemFont,'Segoe UI',sans-serif;fill:#374151}
          .zero{stroke:#111827;stroke-width:1;stroke-dasharray:3 3}.frame{fill:none;stroke:#d1d5db}.bar-bg{fill:#e5e7eb}
        </style>
<rect class="bg" width="1320" height="430"/>
<text class="title" x="32" y="34">同一检查点的门控干预与专家选择质量</text>
<text class="subtitle" x="32" y="56">点为完整 5,000 图 New17 AP 点差；线为 1,000 次配对图像重采样的逐比较 95% 区间</text>
<rect class="frame" x="28" y="76" width="1264" height="305" rx="8"/>
<text class="panel-title" x="185" y="105">(a) 固定编号后替换 gate</text>
<line class="zero" x1="365.0" y1="125" x2="365.0" y2="317" />
<text class="tick" x="185.0" y="335" text-anchor="middle">-0.18</text>
<text class="tick" x="365.0" y="335" text-anchor="middle">+0.00</text>
<text class="tick" x="445.0" y="335" text-anchor="middle">+0.08</text>
<text class="row-label" x="177" y="149" text-anchor="end">S0 GZ−T</text>
<line x1="344.3" y1="145" x2="360.1" y2="145" stroke="#2563eb" stroke-width="3" />
<circle cx="353.3" cy="145" r="4.5" fill="#2563eb" />
<text class="row-label" x="177" y="176" text-anchor="end">S0 GW−T</text>
<line x1="280.4" y1="172" x2="322.7" y2="172" stroke="#2563eb" stroke-width="3" />
<circle cx="296.4" cy="172" r="4.5" fill="#2563eb" />
<text class="row-label" x="177" y="203" text-anchor="end">S1 GZ−T</text>
<line x1="381.5" y1="199" x2="403.9" y2="199" stroke="#ea580c" stroke-width="3" />
<circle cx="390.6" cy="199" r="4.5" fill="#ea580c" />
<text class="row-label" x="177" y="230" text-anchor="end">S1 GW−T</text>
<line x1="191.2" y1="226" x2="259.9" y2="226" stroke="#ea580c" stroke-width="3" />
<circle cx="245.2" cy="226" r="4.5" fill="#ea580c" />
<text class="row-label" x="177" y="257" text-anchor="end">S2 GZ−T</text>
<line x1="378.4" y1="253" x2="396.6" y2="253" stroke="#059669" stroke-width="3" />
<circle cx="385.5" cy="253" r="4.5" fill="#059669" />
<text class="row-label" x="177" y="284" text-anchor="end">S2 GW−T</text>
<line x1="327.0" y1="280" x2="358.2" y2="280" stroke="#059669" stroke-width="3" />
<circle cx="342.9" cy="280" r="4.5" fill="#059669" />
<text class="panel-title" x="620" y="105">(b) 固定/翻转专家选择</text>
<line class="zero" x1="770.0" y1="125" x2="770.0" y2="317" />
<text class="tick" x="620.0" y="335" text-anchor="middle">-3.20</text>
<text class="tick" x="770.0" y="335" text-anchor="middle">+0.00</text>
<text class="tick" x="920.0" y="335" text-anchor="middle">+3.20</text>
<text class="row-label" x="612" y="149" text-anchor="end">S0 E1−E0</text>
<line x1="665.2" y1="145" x2="699.4" y2="145" stroke="#2563eb" stroke-width="3" />
<circle cx="682.1" cy="145" r="4.5" fill="#2563eb" />
<text class="row-label" x="612" y="176" text-anchor="end">S0 FT−T</text>
<line x1="665.2" y1="172" x2="699.4" y2="172" stroke="#2563eb" stroke-width="3" />
<circle cx="682.1" cy="172" r="4.5" fill="#2563eb" />
<text class="row-label" x="612" y="203" text-anchor="end">S1 E1−E0</text>
<line x1="630.6" y1="199" x2="676.6" y2="199" stroke="#ea580c" stroke-width="3" />
<circle cx="659.1" cy="199" r="4.5" fill="#ea580c" />
<text class="row-label" x="612" y="230" text-anchor="end">S1 FT−T</text>
<line x1="863.4" y1="226" x2="909.2" y2="226" stroke="#ea580c" stroke-width="3" />
<circle cx="880.9" cy="226" r="4.5" fill="#ea580c" />
<text class="row-label" x="612" y="257" text-anchor="end">S2 E1−E0</text>
<line x1="718.0" y1="253" x2="751.6" y2="253" stroke="#059669" stroke-width="3" />
<circle cx="737.9" cy="253" r="4.5" fill="#059669" />
<text class="row-label" x="612" y="284" text-anchor="end">S2 FT−T</text>
<line x1="788.4" y1="280" x2="822.0" y2="280" stroke="#059669" stroke-width="3" />
<circle cx="802.1" cy="280" r="4.5" fill="#059669" />
<text class="panel-title" x="1020" y="105">(c) 原生专家使用</text>
<text class="row-label" x="1012" y="158" text-anchor="end">S0</text>
<rect class="bar-bg" x="1020" y="145" width="230" height="20" rx="3"/>
<rect x="1020" y="145" width="229.9" height="20" rx="3" fill="#2563eb"/>
<text class="row-label" x="1135" y="160" text-anchor="middle">E0 4998 / E1 2</text>
<text class="row-label" x="1012" y="220" text-anchor="end">S1</text>
<rect class="bar-bg" x="1020" y="207" width="230" height="20" rx="3"/>
<rect x="1020" y="207" width="0.3" height="20" rx="3" fill="#ea580c"/>
<text class="row-label" x="1135" y="222" text-anchor="middle">E0 7 / E1 4993</text>
<text class="row-label" x="1012" y="282" text-anchor="end">S2</text>
<rect class="bar-bg" x="1020" y="269" width="230" height="20" rx="3"/>
<rect x="1020" y="269" width="0.0" height="20" rx="3" fill="#059669"/>
<text class="row-label" x="1135" y="284" text-anchor="middle">E0 0 / E1 5000</text>
<text class="note" x="32" y="410">GZ/GW：保留原生专家编号，分别使用零文本/错类文本 gate；FT：按逐图原生编号的相反专家组装完整预测。</text>
</svg>
